Coordinates
version=1
nRows=8
nColumns=40
inDegrees=yes

Units are S.I. units (second, meters, Newtons, ...)
If the header above contains a line with 'inDegrees', this indicates whether rotational values are in degrees (yes) or radians (no).

endheader
time	pelvis_tilt	pelvis_list	pelvis_rotation	pelvis_tx	pelvis_ty	pelvis_tz	hip_flexion_r	hip_adduction_r	hip_rotation_r	knee_angle_r	knee_angle_r_beta	ankle_angle_r	subtalar_angle_r	mtp_angle_r	hip_flexion_l	hip_adduction_l	hip_rotation_l	knee_angle_l	knee_angle_l_beta	ankle_angle_l	subtalar_angle_l	mtp_angle_l	lumbar_extension	lumbar_bending	lumbar_rotation	arm_flex_r	arm_add_r	arm_rot_r	elbow_flex_r	pro_sup_r	wrist_flex_r	wrist_dev_r	arm_flex_l	arm_add_l	arm_rot_l	elbow_flex_l	pro_sup_l	wrist_flex_l	wrist_dev_l
      3.94000000	    -38.38509248	      5.28062042	     -8.63152276	     -0.40507637	      0.64264175	     -0.88788680	    106.27619143	    -13.39232404	      7.51745680	     98.48233475	      1.71884100	     31.16490090	      0.00000000	      0.00000000	    105.43826533	    -34.79252077	      1.05485820	     98.69268957	      1.72251238	     33.13490359	      0.00000000	      0.00000000	    -17.52300587	     -7.87163817	      4.84076227	     16.47690731	    -51.80463296	     89.53618378	     86.12102941	     88.73535692	      0.00000000	      0.00000000	     11.54577626	    -58.02472032	     89.52885419	     92.56574419	     87.10717891	      0.00000000	      0.00000000
      3.94500000	    -38.38118828	      5.18645729	     -8.60668228	     -0.40491796	      0.64270101	     -0.88791090	    106.20050458	    -13.41950057	      7.43929296	     98.48901497	      1.71895759	     31.22601188	      0.00000000	      0.00000000	    105.48528905	    -34.73893199	      1.18041490	     98.68975958	      1.72246124	     33.11721849	      0.00000000	      0.00000000	    -17.54547521	     -7.77139277	      4.80744837	     16.49768369	    -51.81540959	     89.53414216	     86.12991413	     88.70899232	      0.00000000	      0.00000000	     11.54016194	    -58.01047533	     89.53156434	     92.53634890	     87.14791598	      0.00000000	      0.00000000
      3.95000000	    -38.54276364	      5.19217872	     -8.23745669	     -0.40499752	      0.64237844	     -0.88902018	    106.42796258	    -13.84383788	      7.54086648	     98.51166707	      1.71935294	     31.11782149	      0.00000000	      0.00000000	    105.60558286	    -34.23170798	      1.11041706	     98.64107617	      1.72161156	     33.04946228	      0.00000000	      0.00000000	    -17.40657226	     -7.61847782	      4.48052051	     16.46824831	    -51.87168069	     89.52659793	     86.13111722	     88.73780947	      0.00000000	      0.00000000	     11.52688565	    -57.99904060	     89.53096672	     92.58744350	     87.15729999	      0.00000000	      0.00000000
      3.95500000	    -38.51711351	      5.19147240	     -8.17260909	     -0.40480052	      0.64251196	     -0.88927051	    106.37637957	    -13.91604464	      7.57176770	     98.51666394	      1.71944015	     31.28805208	      0.00000000	      0.00000000	    105.49196129	    -34.13296074	      1.05722848	     98.58266325	      1.72059206	     33.25805605	      0.00000000	      0.00000000	    -17.46769719	     -7.58951631	      4.42472742	     16.47818054	    -51.90319078	     89.54809272	     86.08049700	     88.69741418	      0.00000000	      0.00000000	     11.50140706	    -57.93951063	     89.54282735	     92.55377291	     85.59266474	      0.00000000	      0.00000000
      3.96000000	    -38.36540329	      5.32062939	     -8.78494673	     -0.40459281	      0.64269675	     -0.88753085	    106.21801707	    -13.17224574	      7.56518610	     98.48047147	      1.71880848	     31.19365592	      0.00000000	      0.00000000	    105.37289247	    -35.00387894	      1.02333905	     98.71482982	      1.72289880	     33.19437117	      0.00000000	      0.00000000	    -17.54253010	     -7.99050777	      4.90556958	     16.55067645	    -51.73131480	     89.53916073	     86.08565244	     88.72070967	      0.00000000	      0.00000000	     11.51601973	    -58.11395266	     89.53024454	     92.57461462	     86.98748306	      0.00000000	      0.00000000
      3.96500000	    -38.38529517	      5.29547310	     -8.51686890	     -0.40444157	      0.64274961	     -0.88832159	    106.24087059	    -13.49097999	      7.62562245	     98.52011202	      1.71950033	     31.23199033	      0.00000000	      0.00000000	    105.31408472	    -34.64169737	      0.94709724	     98.66456115	      1.72202145	     33.24661616	      0.00000000	      0.00000000	    -17.56983353	     -7.86725792	      4.66373288	     16.57877835	    -51.77710350	     89.55167459	     86.05430710	     88.68939672	      0.00000000	      0.00000000	     11.48900868	    -58.08325379	     89.54971863	     92.61170098	     85.48560202	      0.00000000	      0.00000000
      3.97000000	    -38.39639564	      5.23985293	     -8.58994059	     -0.40432276	      0.64277344	     -0.88811851	    106.20028891	    -13.40190695	      7.55513623	     98.49041072	      1.71898195	     31.17146415	      0.00000000	      0.00000000	    105.39198340	    -34.73529715	      1.06389354	     98.68644306	      1.72240336	     33.11296911	      0.00000000	      0.00000000	    -17.56358392	     -7.82808771	      4.75357897	     16.57547070	    -51.79438713	     89.54203792	     86.11394819	     88.71450190	      0.00000000	      0.00000000	     11.56074975	    -58.04717130	     89.53090065	     92.55871978	     87.15896908	      0.00000000	      0.00000000
      3.97500000	    -38.44457694	      5.19743947	     -8.37168458	     -0.40415699	      0.64276947	     -0.88877492	    106.23471211	    -13.67503234	      7.56819139	     98.51229909	      1.71936397	     31.21768600	      0.00000000	      0.00000000	    105.39571818	    -34.45488674	      1.02518722	     98.65684784	      1.72188682	     33.17736203	      0.00000000	      0.00000000	    -17.55819013	     -7.69189085	      4.57086986	     16.56563201	    -51.81169888	     89.54429156	     86.09932200	     88.69441303	      0.00000000	      0.00000000	     11.57634872	    -57.98043384	     89.53070853	     92.52726077	     87.30767011	      0.00000000	      0.00000000
